name p02_m_01_labelled_grf.mot
datacolumns 46
datarows 6
range 0.238000 0.240500
endheader
time	1_ground_force_vx	1_ground_force_vy	1_ground_force_vz	1_ground_force_px	1_ground_force_py	1_ground_force_pz	1_ground_torque_x	1_ground_torque_y	1_ground_torque_z	2_ground_force_vx	2_ground_force_vy	2_ground_force_vz	2_ground_force_px	2_ground_force_py	2_ground_force_pz	2_ground_torque_x	2_ground_torque_y	2_ground_torque_z	3_ground_force_vx	3_ground_force_vy	3_ground_force_vz	3_ground_force_px	3_ground_force_py	3_ground_force_pz	3_ground_torque_x	3_ground_torque_y	3_ground_torque_z	4_ground_force_vx	4_ground_force_vy	4_ground_force_vz	4_ground_force_px	4_ground_force_py	4_ground_force_pz	4_ground_torque_x	4_ground_torque_y	4_ground_torque_z	5_ground_force_vx	5_ground_force_vy	5_ground_force_vz	5_ground_force_px	5_ground_force_py	5_ground_force_pz	5_ground_torque_x	5_ground_torque_y	5_ground_torque_z
            0.238000	           -0.281637	            0.224603	            0.019889	            1.356692	           -0.011209	            0.306747	            0.072591	            0.068121	            0.335788	            0.253436	           -0.490214	           -0.200807	            0.451630	           -0.003066	            0.303270	            0.253201	            0.024573	            0.045585	           -0.064216	           -0.811046	            0.282119	           -0.457621	            0.004852	            0.303465	           -0.116644	           -0.003699	            0.127600	           -0.372466	            1.722453	           -0.039974	           -1.364246	            0.012957	            0.295129	           -0.114329	           -0.098861	           -0.064575	           -0.074779	           -0.044464	            0.067142	           -2.299638	            0.019384	            0.322027	            0.027185	           -0.155855	            0.208196
            0.238500	            0.118570	            0.221019	            0.059906	            1.356692	           -0.011209	            0.306747	            0.002905	            0.032567	           -0.190053	            0.259801	            0.451888	           -0.076358	            0.451630	           -0.003066	            0.303270	            0.109254	            0.020039	            0.593400	           -0.068029	           -1.123204	            0.122594	           -0.457621	            0.004852	            0.303465	           -0.107247	           -0.070609	            0.018179	           -0.416580	            1.249600	           -0.038564	           -1.364246	            0.012957	            0.295129	           -0.214424	           -0.195723	           -0.122422	           -0.193516	           -0.516376	            0.227265	           -2.299638	            0.019384	            0.322027	           -0.018096	           -0.069572	            0.036135
            0.239000	           -0.072712	            1.013058	           -0.059949	            1.356692	           -0.011209	            0.306747	            0.044799	            0.020826	           -0.150995	            0.270120	            2.021014	            0.171544	            0.451630	           -0.003066	            0.303270	            0.227911	            0.003383	            0.264303	            0.016297	           -0.653561	           -0.116259	           -0.457621	            0.004852	            0.303465	            0.334540	           -0.025295	            0.076414	           -0.428529	           -0.011135	            0.239578	           -1.364246	            0.012957	            0.295129	           -0.163867	           -0.044039	           -0.453470	           -0.429837	           -0.203277	            0.148898	           -2.299638	            0.019384	            0.322027	           -0.013129	           -0.113047	           -0.088914
            0.239500	            0.090746	            1.326451	            0.140591	            1.356692	           -0.011209	            0.306747	           -0.101148	            0.019463	           -0.361018	            0.259071	            0.612374	            0.205664	            0.451630	           -0.003066	            0.303270	           -0.069213	           -0.035199	           -0.011502	           -0.299933	           -0.495940	           -0.075534	           -0.457621	            0.004852	            0.303465	            0.166572	           -0.114900	           -0.326003	           -0.637873	           -1.272772	           -0.234783	           -1.364246	            0.012957	            0.295129	           -0.002376	           -0.180832	           -0.244563	           -0.116701	           -1.300459	            0.146698	           -2.299638	            0.019384	            0.322027	            0.020404	           -0.107995	           -0.014841
            0.240000	           -0.009443	           -0.564685	            0.060173	            1.356692	           -0.011209	            0.306747	            0.168578	            0.044719	           -0.807014	            0.458146	            0.293676	           -0.036401	            0.451630	           -0.003066	            0.303270	            0.076425	            0.088701	            0.332359	           -0.178307	           -0.341949	            0.243006	           -0.457621	            0.004852	            0.303465	           -0.211911	            0.019622	            0.174717	           -0.221524	            0.615664	           -0.276385	           -1.364246	            0.012957	            0.295129	           -0.199576	           -0.147604	            0.222125	           -0.113695	            0.266728	            0.028153	           -2.299638	            0.019384	            0.322027	            0.028378	           -0.033023	           -0.013077
            0.240500	            0.014112	            1.640570	            0.060078	            1.356692	           -0.011209	            0.306747	           -0.294556	            0.066485	           -0.143851	            0.231917	            2.178680	            0.091872	            0.451630	           -0.003066	            0.303270	            0.205437	            0.031797	           -0.341733	           -0.252856	            0.128430	            0.084328	           -0.457621	            0.004852	            0.303465	            0.157245	           -0.067781	            0.004205	           -0.467215	           -0.012061	           -0.156668	           -1.364246	            0.012957	            0.295129	            0.124118	           -0.215297	           -0.013284	           -0.351824	           -0.672665	            0.188121	           -2.299638	            0.019384	            0.322027	            0.215967	           -0.111053	            0.079183
